# Blender v2.78 (sub 0) OBJ File: 'grass1.blend'
# www.blender.org
o Plane
v -0.161860 0.383830 0.394872
v -0.158918 -0.007376 0.446004
v -0.416606 -0.013712 0.161605
v -0.314898 -0.018737 0.091590
v -0.277783 0.399317 0.264806
v -0.372183 0.341987 0.211921
v -0.273037 0.374252 0.434439
v -0.506009 0.676378 0.447189
v -0.445821 0.556148 -0.053074
v -0.499093 -0.004399 0.041791
v -0.095668 -0.009751 -0.352604
v 0.027950 -0.006303 -0.191108
v -0.210097 0.587627 -0.202111
v -0.173218 0.540933 -0.372024
v -0.509905 0.578144 -0.171502
v -0.518653 0.996786 -0.535988
v -0.007516 0.817189 -0.306709
v 0.052857 0.001340 -0.419909
v 0.153324 -0.010818 0.400325
v -0.153324 -0.006877 0.400325
v 0.030412 0.882201 0.276607
v 0.173198 0.794162 0.281702
v 0.193310 0.849392 -0.283943
v 0.643604 1.458517 0.000000
vt 0.9687 0.7995
vt 0.9048 0.9295
vt 0.9018 0.7899
vt 0.8657 0.7857
vt 0.9905 0.6329
vt 1.0000 0.7857
vt 0.7061 0.6589
vt 0.6961 0.8082
vt 0.6556 0.8274
vt 0.7326 0.6589
vt 0.7512 0.8072
vt 0.7061 0.8072
vt 0.7061 0.9704
vt 0.6060 0.8292
vt 0.5089 0.9282
vt 0.5805 0.8767
vt 0.5805 0.9846
vt 0.5753 0.8767
vt 0.5089 0.7404
vt 0.5493 0.7243
vt 0.9687 0.9479
vt 0.9395 0.6275
vt 0.5753 0.5781
vt 0.0000 0.9849
vt 0.1743 0.7645
vt 0.1839 0.9784
vt 0.3013 1.0000
vt 0.4761 0.7803
vt 0.5089 1.0000
vt 0.2187 0.5888
vt 0.2462 0.8061
vt 0.1839 0.8072
vt 0.9598 0.0000
vt 0.9598 0.2200
vt 0.8862 0.2104
vt 0.3787 0.7650
vt 0.4519 0.5781
vt 0.0647 0.7558
vt 0.1839 0.5888
vt 0.2811 0.9831
vt 0.0318 0.7650
vt 0.2811 0.5986
vt 0.0000 0.5888
vt 0.2554 0.2759
vt 0.3013 0.5888
vt 0.3013 0.5356
vt 0.6012 0.2564
vt 0.6060 0.5781
vt 0.6515 0.0000
vt 0.6649 0.3373
vt 0.6060 0.3522
vt 0.8657 0.6275
vt 0.8657 0.9495
vt 0.7547 0.9350
vt 0.4099 0.2009
vt 0.6060 0.0000
vt 0.0505 0.2542
vt 0.1661 0.0000
vt 0.7547 0.6589
vt 0.8862 0.6275
vt 0.7547 0.3481
vt 0.8182 0.3067
vt 0.7547 0.0351
vt 0.8862 0.0000
vn -0.7410 -0.0024 0.6715
vn 0.9149 -0.0456 -0.4012
vn 0.2912 0.3440 -0.8927
vn -0.0210 -0.9989 0.0412
vn 0.5546 0.7253 -0.4079
vn -0.7168 -0.5697 0.4020
vn 0.0854 0.5960 -0.7985
vn 0.3231 0.1250 0.9381
vn -0.8711 -0.2476 0.4241
vn 0.7433 0.1987 -0.6388
vn -0.5512 0.1840 -0.8139
vn 0.3129 0.2021 0.9280
vn -0.6946 -0.1228 -0.7088
vn 0.4018 0.1155 0.9084
vn 0.9231 0.3718 0.0982
vn 0.0043 -0.9998 0.0180
vn 0.2945 0.7276 0.6195
vn -0.4608 -0.5882 -0.6646
vn 0.7959 0.6054 0.0064
vn -0.8544 0.1646 0.4929
vn -0.5121 -0.3037 -0.8035
vn 0.5010 0.2163 0.8380
vn 0.7899 0.0899 -0.6066
vn -0.7672 0.4120 0.4916
vn 0.9916 -0.0425 -0.1221
vn -0.9690 -0.0379 -0.2440
vn 0.0440 0.1288 0.9907
vn -0.0128 -0.9998 -0.0132
vn -0.6928 0.7202 -0.0352
vn 0.8101 -0.5856 -0.0284
vn 0.1483 0.2952 0.9439
vn 0.0888 0.1433 -0.9857
vn 0.9859 -0.1663 0.0188
vn -0.9774 0.2076 0.0404
vn 0.0019 0.1457 0.9893
vn 0.0402 0.3976 -0.9167
s off
f 2/1/1 6/2/1 3/3/1
f 4/4/2 1/5/2 2/6/2
f 4/7/3 6/8/3 5/9/3
f 2/10/4 3/11/4 4/12/4
f 5/9/5 8/13/5 1/14/5
f 7/15/6 8/16/6 6/17/6
f 6/8/7 8/13/7 5/9/7
f 2/18/8 1/19/8 7/20/8
f 2/1/9 7/21/9 6/2/9
f 4/4/10 5/22/10 1/5/10
f 4/4/11 3/3/11 6/2/11
f 7/20/12 1/19/12 8/23/12
f 10/24/13 14/25/13 11/26/13
f 12/27/14 9/28/14 10/29/14
f 12/30/15 14/31/15 13/32/15
f 10/33/16 11/34/16 12/35/16
f 13/36/17 16/37/17 9/28/17
f 15/38/18 16/39/18 14/25/18
f 14/31/19 16/40/19 13/32/19
f 10/24/20 9/41/20 15/38/20
f 10/24/21 15/38/21 14/25/21
f 12/27/22 13/36/22 9/28/22
f 12/30/23 11/42/23 14/31/23
f 15/38/24 9/41/24 16/39/24
f 18/43/25 22/44/25 19/45/25
f 20/46/26 17/47/26 18/48/26
f 20/49/27 22/50/27 21/51/27
f 18/52/28 19/53/28 20/54/28
f 21/55/29 24/56/29 17/47/29
f 23/57/30 24/58/30 22/44/30
f 22/50/31 24/59/31 21/51/31
f 18/60/32 17/61/32 23/62/32
f 18/43/33 23/57/33 22/44/33
f 20/46/34 21/55/34 17/47/34
f 20/49/35 19/63/35 22/50/35
f 23/62/36 17/61/36 24/64/36
